<svg 
 xmlns="http://www.w3.org/2000/svg"
 xmlns:xlink="http://www.w3.org/1999/xlink"
 width="70px" height="70px">
<path fill-rule="evenodd"  fill="rgb(255, 255, 255)"
 d="M68.490,21.090 C67.483,23.858 65.372,25.911 62.835,26.935 C68.010,31.953 69.310,39.707 66.255,46.053 L55.770,67.964 C55.438,68.658 54.737,69.100 53.968,69.100 C50.132,69.100 19.678,69.100 16.028,69.100 C15.259,69.100 14.558,68.658 14.226,67.964 L3.739,46.048 C0.704,39.746 1.955,31.983 7.161,26.935 C4.624,25.911 2.513,23.858 1.506,21.090 C-0.383,15.902 2.288,10.174 7.476,8.286 C12.652,6.402 18.396,9.080 20.280,14.257 C21.252,16.929 21.052,19.830 19.718,22.353 C26.863,22.840 33.024,27.856 34.729,35.006 C35.005,34.997 34.994,34.997 35.267,35.006 L35.330,34.744 C36.874,28.272 42.799,22.863 50.278,22.353 C48.944,19.829 48.744,16.929 49.717,14.257 C51.601,9.080 57.344,6.402 62.520,8.286 C67.709,10.175 70.378,15.902 68.490,21.090 ZM29.867,54.321 L32.562,65.104 L37.434,65.104 L40.129,54.321 C40.240,53.877 40.500,53.485 40.866,53.209 L52.310,44.591 C53.200,43.925 53.373,42.674 52.712,41.793 C52.052,40.913 50.796,40.735 49.913,41.395 L41.532,47.585 C40.084,49.639 37.696,50.984 34.998,50.984 C32.300,50.984 29.912,49.639 28.464,47.585 L20.093,41.403 C20.089,41.400 20.084,41.397 20.080,41.393 C19.200,40.733 17.946,40.913 17.283,41.794 C16.623,42.674 16.798,43.926 17.682,44.589 L29.130,53.209 C29.496,53.485 29.756,53.877 29.867,54.321 ZM16.525,15.624 C15.396,12.523 11.968,10.903 8.843,12.041 C5.730,13.174 4.128,16.610 5.261,19.724 C6.394,22.837 9.830,24.440 12.943,23.306 C16.056,22.173 17.658,18.737 16.525,15.624 ZM30.783,35.685 C28.961,28.569 21.248,24.536 14.309,27.062 C7.403,29.575 4.133,37.658 7.341,44.319 L17.287,65.104 L28.443,65.104 L26.162,55.976 L15.282,47.784 C12.610,45.782 12.122,42.016 14.088,39.395 C16.073,36.753 19.833,36.216 22.473,38.194 L27.125,41.629 C27.527,39.301 28.938,37.314 30.891,36.139 L30.783,35.685 ZM34.998,38.996 C32.795,38.996 31.002,40.788 31.002,42.992 C31.002,45.195 32.795,46.988 34.998,46.988 C37.201,46.988 38.994,45.195 38.994,42.992 C38.994,40.788 37.201,38.996 34.998,38.996 ZM39.213,35.685 L39.105,36.139 C41.058,37.314 42.469,39.301 42.871,41.629 L47.530,38.188 C50.163,36.217 53.927,36.754 55.908,39.394 C57.897,42.046 57.361,45.800 54.710,47.787 L43.834,55.976 L41.553,65.104 L52.710,65.104 L62.653,44.323 C65.859,37.664 62.601,29.578 55.687,27.062 C48.757,24.539 41.037,28.559 39.213,35.685 ZM61.153,12.041 C58.040,10.908 54.604,12.511 53.471,15.624 C52.339,18.737 53.941,22.173 57.054,23.306 C60.167,24.440 63.603,22.837 64.736,19.724 C65.869,16.610 64.266,13.174 61.153,12.041 ZM38.859,19.416 C38.044,20.104 37.200,20.816 36.307,21.591 C35.931,21.916 35.465,22.079 34.998,22.079 C34.532,22.079 34.065,21.916 33.690,21.591 C32.708,20.740 31.785,19.966 30.891,19.217 C26.284,15.354 22.955,12.563 22.955,8.278 C22.955,4.141 26.068,0.900 30.042,0.900 C31.972,0.900 33.669,1.685 34.998,3.181 C36.327,1.685 38.025,0.900 39.954,0.900 C43.929,0.900 47.042,4.141 47.042,8.278 C47.042,12.520 43.538,15.467 38.859,19.416 ZM39.954,4.896 C37.809,4.896 36.979,7.540 36.922,7.732 C36.690,8.608 35.904,9.218 34.998,9.218 C34.092,9.218 33.306,8.608 33.074,7.732 C33.017,7.540 32.187,4.896 30.042,4.896 C28.308,4.896 26.950,6.381 26.950,8.278 C26.950,10.591 29.182,12.569 33.458,16.154 C33.959,16.574 34.470,17.003 34.997,17.449 C35.435,17.076 35.862,16.717 36.282,16.362 C40.486,12.814 43.046,10.601 43.046,8.278 C43.046,6.381 41.688,4.896 39.954,4.896 Z"/>
</svg>