<svg 
 xmlns="http://www.w3.org/2000/svg"
 xmlns:xlink="http://www.w3.org/1999/xlink"
 width="66px" height="66px">
<path fill-rule="evenodd"  fill="rgb(255, 255, 255)"
 d="M60.199,15.469 L52.331,15.469 C53.547,13.851 54.269,11.843 54.269,9.668 C54.269,4.337 49.932,-0.000 44.601,-0.000 C41.390,-0.000 39.022,1.150 37.150,3.620 C35.583,5.687 34.437,8.572 33.000,12.218 C31.563,8.572 30.417,5.687 28.850,3.620 C26.977,1.150 24.610,-0.000 21.398,-0.000 C16.067,-0.000 11.730,4.337 11.730,9.668 C11.730,11.843 12.453,13.851 13.669,15.469 L5.801,15.469 C2.602,15.469 -0.000,18.071 -0.000,21.270 L-0.000,25.136 C-0.000,27.657 1.617,29.806 3.867,30.604 L3.867,60.199 C3.867,63.397 6.469,65.999 9.668,65.999 L56.332,65.999 C59.531,65.999 62.133,63.397 62.133,60.199 L62.133,30.604 C64.383,29.806 66.000,27.657 66.000,25.136 L66.000,21.270 C66.000,18.071 63.398,15.469 60.199,15.469 ZM36.549,13.759 C39.511,6.244 40.637,3.867 44.601,3.867 C47.800,3.867 50.402,6.469 50.402,9.668 C50.402,12.866 47.800,15.469 44.601,15.469 L35.873,15.469 C36.110,14.874 36.336,14.301 36.549,13.759 ZM21.398,3.867 C25.362,3.867 26.488,6.244 29.451,13.759 C29.664,14.301 29.890,14.874 30.127,15.469 L21.398,15.469 C18.200,15.469 15.598,12.866 15.598,9.668 C15.598,6.469 18.200,3.867 21.398,3.867 ZM25.266,62.133 L9.668,62.133 C8.602,62.133 7.734,61.265 7.734,60.199 L7.734,30.937 L25.266,30.937 L25.266,62.133 ZM25.266,27.070 L5.801,27.070 C4.735,27.070 3.867,26.203 3.867,25.136 L3.867,21.270 C3.867,20.203 4.735,19.336 5.801,19.336 L25.266,19.336 L25.266,27.070 ZM36.867,62.133 L29.133,62.133 L29.133,19.336 C29.538,19.336 34.645,19.336 36.867,19.336 L36.867,62.133 ZM58.266,60.199 C58.266,61.265 57.398,62.133 56.332,62.133 L40.734,62.133 L40.734,30.937 L58.266,30.937 L58.266,60.199 ZM62.133,25.136 C62.133,26.203 61.265,27.070 60.199,27.070 L40.734,27.070 L40.734,19.336 L60.199,19.336 C61.265,19.336 62.133,20.203 62.133,21.270 L62.133,25.136 Z"/>
</svg>