<svg 
 xmlns="http://www.w3.org/2000/svg"
 xmlns:xlink="http://www.w3.org/1999/xlink"
 width="66px" height="66px">
<path fill-rule="evenodd"  fill="rgb(255, 255, 255)"
 d="M63.501,29.066 L61.468,29.066 L61.333,29.066 L61.333,20.663 L63.501,20.663 C64.550,20.663 65.400,19.813 65.400,18.764 C65.400,17.715 64.550,16.865 63.501,16.865 L59.434,16.865 C58.386,16.865 57.536,17.715 57.536,18.764 L57.536,29.066 L34.898,29.066 L34.898,2.496 C34.898,1.449 34.048,0.597 33.000,0.597 C24.888,0.597 17.263,3.756 11.527,9.492 C6.242,14.777 3.147,21.670 2.693,29.066 L2.498,29.066 C1.450,29.066 0.600,29.916 0.600,30.965 C0.600,32.013 1.450,32.862 2.498,32.862 L2.633,32.862 L2.633,41.131 C2.633,47.554 7.676,52.818 14.010,53.177 C13.244,54.403 12.800,55.850 12.800,57.399 C12.800,61.809 16.389,65.397 20.799,65.397 C25.210,65.397 28.798,61.809 28.798,57.399 C28.798,55.859 28.359,54.419 27.601,53.198 L38.398,53.198 C37.641,54.419 37.202,55.859 37.202,57.399 C37.202,61.809 40.790,65.397 45.200,65.397 C49.611,65.397 53.199,61.809 53.199,57.399 C53.199,55.850 52.755,54.403 51.989,53.177 C58.323,52.819 63.366,47.554 63.366,41.131 L63.366,32.862 L63.501,32.862 C64.550,32.862 65.400,32.013 65.400,30.965 C65.400,29.916 64.550,29.066 63.501,29.066 ZM31.101,4.462 L31.101,26.382 L15.612,10.892 C19.827,7.236 25.201,4.880 31.101,4.462 ZM12.927,13.578 L28.416,29.066 L6.497,29.066 C6.916,23.166 9.271,17.793 12.927,13.578 ZM20.799,61.601 C18.482,61.601 16.597,59.716 16.597,57.399 C16.597,55.082 18.482,53.198 20.799,53.198 C23.116,53.198 25.001,55.082 25.001,57.399 C25.001,59.716 23.116,61.601 20.799,61.601 ZM45.200,61.601 C42.883,61.601 40.998,59.716 40.998,57.399 C40.998,55.082 42.883,53.198 45.200,53.198 C47.517,53.198 49.402,55.082 49.402,57.399 C49.402,59.716 47.517,61.601 45.200,61.601 ZM59.569,41.131 C59.569,45.691 55.860,49.400 51.301,49.400 L14.699,49.400 C10.139,49.400 6.430,45.691 6.430,41.131 L6.430,32.862 L33.000,32.862 L59.569,32.862 L59.569,41.131 L59.569,41.131 Z"/>
</svg>