<svg xmlns="http://www.w3.org/2000/svg" width="52" height="52" viewBox="0 0 52 52">
  <defs>
    <style>
      .cls-1 {
        fill: #ff1944;
        fill-rule: evenodd;
        opacity: 0.2;
      }
    </style>
  </defs>
  <path class="cls-1" d="M1260.96,1319.4a3.49,3.49,0,0,0,.86-3.57,3.4,3.4,0,0,0-2.76-2.37l-11.38-1.68a0.68,0.68,0,0,1-.52-0.38l-5.09-10.46a3.407,3.407,0,0,0-6.15,0l-5.09,10.46a0.665,0.665,0,0,1-.51.38l-11.38,1.68a3.428,3.428,0,0,0-2.77,2.37,3.515,3.515,0,0,0,.87,3.57l8.23,8.15a0.7,0.7,0,0,1,.2.61l-1.94,11.51a3.467,3.467,0,0,0,1.36,3.4,3.355,3.355,0,0,0,3.61.27l10.18-5.43a0.662,0.662,0,0,1,.64,0l10.17,5.43a3.389,3.389,0,0,0,3.62-.27,3.486,3.486,0,0,0,1.36-3.4l-1.94-11.51a0.691,0.691,0,0,1,.19-0.61Zm-11.14,9.23,1.95,11.51a0.688,0.688,0,0,1-.28.68,0.673,0.673,0,0,1-.72.05l-10.18-5.43a3.321,3.321,0,0,0-1.59-.4,3.359,3.359,0,0,0-1.6.4l-10.17,5.43a0.7,0.7,0,0,1-.73-0.05,0.706,0.706,0,0,1-.27-0.68l1.94-11.51a3.477,3.477,0,0,0-.98-3.08l-8.23-8.14a0.692,0.692,0,0,1-.18-0.72,0.663,0.663,0,0,1,.56-0.47l11.37-1.68a3.443,3.443,0,0,0,2.59-1.9l5.08-10.47a0.674,0.674,0,0,1,.62-0.39,0.662,0.662,0,0,1,.61.39h0l5.09,10.47a3.444,3.444,0,0,0,2.58,1.9l11.38,1.68a0.678,0.678,0,0,1,.56.47,0.692,0.692,0,0,1-.18.72l-8.23,8.14A3.511,3.511,0,0,0,1249.82,1328.63Zm5.2-27.69a1.347,1.347,0,0,0-1.91.31l-1.46,2.03a1.407,1.407,0,0,0,.3,1.94,1.36,1.36,0,0,0,1.92-.3l1.46-2.04A1.4,1.4,0,0,0,1255.02,1300.94Zm-28.68,2.33-1.46-2.03a1.355,1.355,0,0,0-1.91-.31,1.4,1.4,0,0,0-.31,1.94l1.46,2.04a1.376,1.376,0,0,0,1.92.31A1.421,1.421,0,0,0,1226.34,1303.27Zm-8.31,26.97a1.378,1.378,0,0,0-1.73-.9l-2.35.78a1.4,1.4,0,0,0-.88,1.76,1.368,1.368,0,0,0,1.3.96,1.234,1.234,0,0,0,.42-0.07l2.36-.78A1.4,1.4,0,0,0,1218.03,1330.24ZM1239,1345.7a1.376,1.376,0,0,0-1.37,1.39v2.51a1.37,1.37,0,1,0,2.74,0v-2.51A1.376,1.376,0,0,0,1239,1345.7Zm25.05-15.58-2.36-.77a1.354,1.354,0,0,0-1.72.89,1.385,1.385,0,0,0,.88,1.75l2.35,0.78a1.291,1.291,0,0,0,.43.07,1.374,1.374,0,0,0,1.3-.96A1.4,1.4,0,0,0,1264.05,1330.12Z" transform="translate(-1213 -1299)"/>
</svg>
