<svg xmlns="http://www.w3.org/2000/svg" width="44" height="52" viewBox="0 0 44 52">
  <metadata><?xpacket begin="﻿" id="W5M0MpCehiHzreSzNTczkc9d"?>
<x:xmpmeta xmlns:x="adobe:ns:meta/" x:xmptk="Adobe XMP Core 5.6-c142 79.160924, 2017/07/13-01:06:39        ">
   <rdf:RDF xmlns:rdf="http://www.w3.org/1999/02/22-rdf-syntax-ns#">
      <rdf:Description rdf:about=""/>
   </rdf:RDF>
</x:xmpmeta>
                                                                                                    
                                                                                                    
                                                                                                    
                                                                                                    
                                                                                                    
                                                                                                    
                                                                                                    
                                                                                                    
                                                                                                    
                                                                                                    
                                                                                                    
                                                                                                    
                                                                                                    
                                                                                                    
                                                                                                    
                                                                                                    
                                                                                                    
                                                                                                    
                                                                                                    
                                                                                                    
                           
<?xpacket end="w"?></metadata>
<defs>
    <style>
      .cls-1 {
        fill: #8c00ff;
        fill-rule: evenodd;
        opacity: 0.2;
      }
    </style>
  </defs>
  <path class="cls-1" d="M417.12,1304.01a3.715,3.715,0,0,0-2.837-1.33h-3.59v-1.13a2.535,2.535,0,0,0-2.52-2.55H383.827a2.535,2.535,0,0,0-2.52,2.55v1.13h-3.591a3.715,3.715,0,0,0-2.837,1.33,3.752,3.752,0,0,0-.831,3.01,19.452,19.452,0,0,0,9.774,13.9,26.268,26.268,0,0,0,1.607,3.26,15.076,15.076,0,0,0,6.887,6.58,5.493,5.493,0,0,1-4.194,5.88h-0.016a1.2,1.2,0,0,0-.912,1.17v5.52h-2.206a3.594,3.594,0,0,0-3.568,3.61v2.85a1.2,1.2,0,0,0,1.189,1.21h26.9a1.2,1.2,0,0,0,1.189-1.21v-2.85a3.593,3.593,0,0,0-3.567-3.61h-2.207v-5.52a1.2,1.2,0,0,0-.915-1.17h-0.015a5.493,5.493,0,0,1-4.19-5.93,15.188,15.188,0,0,0,6.772-6.53,26.268,26.268,0,0,0,1.607-3.26,19.454,19.454,0,0,0,9.774-13.9A3.753,3.753,0,0,0,417.12,1304.01Zm-40.725,2.62a1.3,1.3,0,0,1,.3-1.06,1.355,1.355,0,0,1,1.025-.48h3.591v2.22a38.269,38.269,0,0,0,1.267,9.91A17.1,17.1,0,0,1,376.4,1306.63Zm30.731,39.11a1.2,1.2,0,0,1,1.189,1.2v1.65H383.8v-1.65a1.2,1.2,0,0,1,1.189-1.2h22.138Zm-4.586-6.72v4.31H389.573v-4.31H402.54Zm-9.848-2.41a8.151,8.151,0,0,0,.8-1.06,7.931,7.931,0,0,0,1.227-4.13,10.874,10.874,0,0,0,1.279.09,9.217,9.217,0,0,0,1.39-.11,7.992,7.992,0,0,0,2.042,5.21h-6.741Zm15.623-29.3a31.366,31.366,0,0,1-3.789,15.64c-2.327,3.96-5.355,6.15-8.526,6.15s-6.2-2.19-8.527-6.15a31.376,31.376,0,0,1-3.788-15.64v-5.76a0.148,0.148,0,0,1,.142-0.15h24.346a0.148,0.148,0,0,1,.142.15v5.76Zm7.29-.68a17.1,17.1,0,0,1-6.179,10.59,38.312,38.312,0,0,0,1.267-9.91v-2.22h3.59a1.352,1.352,0,0,1,1.025.48A1.308,1.308,0,0,1,415.605,1306.63Zm-12.385,4.72a1.21,1.21,0,0,0-.96-0.82l-3.589-.52-1.605-3.29a1.184,1.184,0,0,0-2.133,0l-1.6,3.29-3.589.52a1.212,1.212,0,0,0-.659,2.06l2.6,2.56-0.613,3.61a1.206,1.206,0,0,0,.473,1.18,1.161,1.161,0,0,0,1.252.09l3.21-1.7,3.21,1.7a1.092,1.092,0,0,0,.553.14,1.2,1.2,0,0,0,.7-0.23,1.21,1.21,0,0,0,.473-1.18l-0.613-3.61,2.6-2.56A1.225,1.225,0,0,0,403.22,1311.35Zm-5.006,2.52a1.2,1.2,0,0,0-.342,1.06l0.311,1.84-1.63-.87a1.164,1.164,0,0,0-1.107,0l-1.63.87,0.311-1.84a1.193,1.193,0,0,0-.342-1.06l-1.318-1.3,1.822-.27a1.213,1.213,0,0,0,.9-0.66l0.815-1.67,0.815,1.67a1.211,1.211,0,0,0,.895.66l1.823,0.27Z" transform="translate(-374 -1299)"/>
</svg>
