<svg xmlns="http://www.w3.org/2000/svg" width="55" height="52" viewBox="0 0 55 52">
  <metadata><?xpacket begin="﻿" id="W5M0MpCehiHzreSzNTczkc9d"?>
<x:xmpmeta xmlns:x="adobe:ns:meta/" x:xmptk="Adobe XMP Core 5.6-c142 79.160924, 2017/07/13-01:06:39        ">
   <rdf:RDF xmlns:rdf="http://www.w3.org/1999/02/22-rdf-syntax-ns#">
      <rdf:Description rdf:about=""/>
   </rdf:RDF>
</x:xmpmeta>
                                                                                                    
                                                                                                    
                                                                                                    
                                                                                                    
                                                                                                    
                                                                                                    
                                                                                                    
                                                                                                    
                                                                                                    
                                                                                                    
                                                                                                    
                                                                                                    
                                                                                                    
                                                                                                    
                                                                                                    
                                                                                                    
                                                                                                    
                                                                                                    
                                                                                                    
                                                                                                    
                           
<?xpacket end="w"?></metadata>
<defs>
    <style>
      .cls-1 {
        fill: #ff5200;
        fill-rule: evenodd;
        opacity: 0.2;
      }
    </style>
  </defs>
  <path class="cls-1" d="M847.653,1307.6l-8.32-8.26a1.172,1.172,0,0,0-.831-0.34h-36a1.175,1.175,0,0,0-.831.34l-8.32,8.26a1.153,1.153,0,0,0-.151,1.46l17.4,26.31a10.765,10.765,0,0,0-1.085,4.72,10.986,10.986,0,0,0,21.971,0,10.765,10.765,0,0,0-1.085-4.72l17.4-26.31A1.153,1.153,0,0,0,847.653,1307.6Zm-44.669-6.27h35.031l5.97,5.93H797.014Zm30.5,8.26-12.969,19.6h-0.036l-12.969-19.6h25.974Zm-37.132,0H804.7l13.177,19.91a11.1,11.1,0,0,0-5.894,3.71Zm24.144,39.08a8.575,8.575,0,1,1,8.635-8.58A8.617,8.617,0,0,1,820.5,1348.67Zm8.517-15.46a11.1,11.1,0,0,0-5.894-3.71l13.176-19.91h8.347Zm-8.117,2.62h-1.867a1.165,1.165,0,1,0,0,2.33h0.691v6.3a1.176,1.176,0,0,0,2.351,0v-7.47A1.168,1.168,0,0,0,820.9,1335.83Z" transform="translate(-793 -1299)"/>
</svg>
