<svg width="18" height="18" viewBox="0 0 18 18" fill="none" xmlns="http://www.w3.org/2000/svg">
<g clip-path="url(#clip0)">
<path d="M0.143005 2.22615C0.143005 2.7195 0.306238 3.21841 0.643776 3.63016L4.99677 8.97357L0.601117 14.3689C0.265415 14.7825 0.100347 15.2796 0.100347 15.7729C0.100347 16.4183 0.380426 17.0601 0.920127 17.4997C1.87345 18.2768 3.2756 18.1321 4.05087 17.1806L9.59273 10.3794C10.2604 9.56151 10.2604 8.38563 9.59273 7.5677L4.09353 0.82028C3.31826 -0.133039 1.91612 -0.275852 0.962786 0.499415C0.423066 0.940835 0.143005 1.58071 0.143005 2.22615Z" fill="#FA9DB8"/>
<path d="M7.94938 2.22615C7.94938 2.7195 8.1126 3.21841 8.45016 3.63016L12.8032 8.97357L8.4075 14.3689C8.07177 14.7825 7.90672 15.2796 7.90672 15.7729C7.90672 16.4183 8.18679 17.0601 8.72651 17.4997C9.67981 18.2768 11.082 18.1321 11.8573 17.1806L17.3991 10.3794C18.0668 9.56151 18.0668 8.38563 17.3991 7.5677L11.9018 0.82028C11.1246 -0.133039 9.72249 -0.275852 8.76917 0.499415C8.22945 0.940835 7.94938 1.58071 7.94938 2.22615Z" fill="#FA9DB8"/>
</g>
<defs>
<clipPath id="clip0">
<rect width="18" height="18" fill="white" transform="translate(18) rotate(90)"/>
</clipPath>
</defs>
</svg>
