<svg width="90" height="90" viewBox="0 0 90 90" fill="none" xmlns="http://www.w3.org/2000/svg">
<g clip-path="url(#clip0)">
<path d="M28.0906 52.1959C28.8354 52.1973 29.4682 51.6517 29.5765 50.9142C29.6849 50.1775 29.236 49.4729 28.5227 49.2591C25.424 48.3297 22.0595 44.9279 19.2889 39.9302C18.8876 39.2051 17.9751 38.9429 17.25 39.3443C16.525 39.7456 16.2628 40.6589 16.6641 41.3832C19.814 47.0605 23.8186 50.9831 27.6585 52.1314C27.7983 52.1739 27.9441 52.1959 28.0906 52.1959Z" fill="white"/>
<path d="M43.58 18.8631C44.5079 20.9526 44.992 23.2119 45.003 25.4984C45.003 26.3267 45.6746 26.9983 46.5029 26.9983C47.3312 26.9983 48.0028 26.3267 48.0028 25.4984C47.9926 22.8011 47.4235 20.1352 46.3323 17.6686C44.9422 14.4161 42.7261 11.5826 39.9035 9.4492C39.2407 8.95265 38.3011 9.08668 37.8038 9.74947C37.3065 10.4123 37.4413 11.3526 38.1034 11.8492C40.5099 13.6691 42.3972 16.0874 43.58 18.8631Z" fill="white"/>
<path d="M30.004 8.99931C31.3714 9.00443 32.7285 9.23513 34.0211 9.68188C34.8055 9.94846 35.6579 9.52881 35.9245 8.74444C36.1911 7.96007 35.7715 7.10759 34.9871 6.84101C33.3832 6.2888 31.7002 6.00464 30.004 5.99951C29.1757 5.99951 28.5042 6.6711 28.5042 7.49941C28.5042 8.32772 29.1757 8.99931 30.004 8.99931Z" fill="white"/>
<path d="M58.5202 61.2638C55.4215 60.3336 52.057 56.9318 49.2865 51.9341C48.8851 51.209 47.9726 50.9469 47.2476 51.3482C46.5225 51.7495 46.2603 52.6628 46.6617 53.3878C49.8116 59.0644 53.8162 62.987 57.656 64.1354C58.1723 64.3002 58.7369 64.1735 59.1331 63.8043C59.5294 63.4352 59.6956 62.8808 59.5689 62.355C59.4422 61.8284 59.0409 61.411 58.5202 61.2638Z" fill="white"/>
<path d="M69.9016 21.4481C69.2388 20.9516 68.2991 21.0856 67.8019 21.7484C67.3046 22.4112 67.4393 23.3515 68.1014 23.8481C70.505 25.6666 72.3924 28.0812 73.5751 30.8525C74.5053 32.9449 74.9908 35.2079 75.0011 37.4973C75.0011 38.3256 75.6727 38.9972 76.501 38.9972C77.3293 38.9972 78.0009 38.3256 78.0009 37.4973C77.9906 34.8 77.4216 32.1341 76.3303 29.6675C74.9403 26.415 72.7241 23.5815 69.9016 21.4481Z" fill="white"/>
<path d="M64.9847 18.8403C63.3808 18.2881 61.6978 18.0039 60.0016 17.9988C59.1733 17.9988 58.5017 18.6704 58.5017 19.4987C58.5017 20.327 59.1733 20.9986 60.0016 20.9986C61.369 21.0037 62.726 21.2344 64.0187 21.6811C64.8031 21.9477 65.6555 21.5281 65.9221 20.7437C66.1887 19.9593 65.7691 19.1069 64.9847 18.8403Z" fill="white"/>
<path d="M59.9816 11.9992H59.9574C56.932 12.0131 53.9439 12.6642 51.1873 13.9099C47.3314 5.63486 39.1303 0.249738 30.0042 0C17.2207 0 6.00586 11.9149 6.00586 25.4982C6.00586 37.2469 14.0693 53.2163 24.663 57.404L24.0258 61.2496C23.9533 61.6847 24.0764 62.1292 24.3613 62.4654C24.6454 62.8015 25.0643 62.9956 25.5045 62.9956H27.9228L26.9729 65.8453C25.9388 68.9205 26.3936 72.3026 28.2048 74.9948L29.3187 76.6653C30.6091 78.5885 30.9328 81.0024 30.1946 83.1981L28.5871 88.0244C28.3249 88.8117 28.7511 89.6612 29.5377 89.9234C30.325 90.1849 31.1752 89.7594 31.4367 88.9721L33.0355 84.1443C34.0703 81.0691 33.6155 77.687 31.8044 74.9948L30.6897 73.3242C29.3978 71.401 29.0733 68.9871 29.8123 66.7915L31.0844 62.9956H34.5039C34.9448 62.9956 35.3629 62.8015 35.6478 62.4654C35.9327 62.1292 36.055 61.6847 35.9833 61.2496L35.3454 57.4069C37.1748 56.6723 38.882 55.6646 40.409 54.4174C43.5589 60.7399 48.5295 66.9944 54.658 69.4244L54.0238 73.2488C53.9513 73.6838 54.0743 74.1284 54.3592 74.4645C54.6433 74.8007 55.0623 74.9948 55.5024 74.9948H57.9207L56.9708 77.8444C55.9367 80.9197 56.3915 84.3018 58.2027 86.9939L59.3151 88.6616C59.4352 88.8417 59.5466 89.0277 59.6498 89.2152C59.9128 89.6979 60.4188 89.9974 60.9681 89.9967C61.2186 89.9967 61.4646 89.933 61.6836 89.8121C62.4109 89.4159 62.6796 88.5056 62.2834 87.7783C62.1333 87.5147 61.9839 87.2547 61.8125 86.9998L60.6986 85.3293C59.4059 83.4068 59.0822 80.9922 59.8205 78.7973L61.0823 74.9948H64.5018C64.9427 74.9948 65.3609 74.8007 65.6457 74.4645C65.9306 74.1284 66.0529 73.6838 65.9812 73.2488L65.3506 69.4515C69.6467 67.7743 73.7341 64.1008 77.2004 58.6907C81.339 52.3528 83.6884 45.0144 84.0004 37.4513C83.9689 23.8841 72.7512 11.9992 59.9816 11.9992ZM9.00565 25.4982C9.00565 13.5122 18.818 2.99979 30.0042 2.99979C38.0573 2.99979 45.5466 8.28971 49.0876 16.482C50.3414 19.3236 50.9932 22.393 51.0027 25.4982C50.9998 26.6019 50.9273 27.7034 50.7852 28.7983C50.6116 30.1078 50.3612 31.4063 50.0353 32.6872C48.3596 39.5671 44.8537 45.8655 39.8905 50.9152C38.0178 52.7812 35.735 54.183 33.2244 55.0098C31.6601 55.4954 30.0057 55.6206 28.3856 55.376C27.84 55.2933 27.3017 55.1702 26.7737 55.0084C16.9328 52.0467 9.00565 36.4472 9.00565 25.4982ZM27.2746 59.9958L27.5595 58.2755C27.6482 58.2916 27.7353 58.2967 27.8232 58.3114C27.9118 58.3268 28.0422 58.3399 28.152 58.3546C28.7577 58.4432 29.3685 58.4901 29.9808 58.4959H30.0284C30.6399 58.4908 31.25 58.4439 31.8556 58.3568C31.9647 58.3414 32.0761 58.3312 32.1852 58.3128C32.295 58.2953 32.361 58.2938 32.4496 58.277L32.7345 59.9958H27.2746ZM62.7324 71.995H57.2726L57.5574 70.2747C57.7266 70.3047 57.8965 70.3193 58.0642 70.3435C58.2056 70.3633 58.3447 70.3838 58.4861 70.4006C58.9892 70.4592 59.4953 70.4907 60.0021 70.4951H60.0431C60.8473 70.4929 61.6507 70.4204 62.4424 70.279L62.7324 71.995ZM74.6803 57.0707C71.2953 62.3475 67.2167 65.8262 63.1418 67.0244C62.6701 67.165 62.1897 67.2741 61.7034 67.351L61.502 67.3796C60.5023 67.5217 59.4872 67.5217 58.4876 67.3796C58.3616 67.362 58.24 67.332 58.1155 67.3093C57.7054 67.2397 57.2989 67.1474 56.899 67.0332C50.8108 65.2901 45.7743 58.7632 42.7313 52.3345C42.8207 52.2444 42.9064 52.1426 42.9935 52.0511C43.181 51.8541 43.3656 51.6534 43.5501 51.4513C43.7691 51.2088 43.9859 50.9628 44.2012 50.7116C44.3836 50.497 44.5623 50.2795 44.741 50.0576C44.9511 49.7998 45.1577 49.5368 45.362 49.2688C45.5378 49.0374 45.7121 48.8037 45.8835 48.5664C46.0841 48.294 46.2789 48.0172 46.4686 47.7374C46.6385 47.4913 46.8048 47.2438 46.9696 46.9875C47.157 46.7026 47.3401 46.4125 47.5218 46.1203C47.6822 45.8625 47.8411 45.6025 47.9971 45.3389C48.1728 45.0386 48.3435 44.7391 48.5119 44.4388C48.6613 44.1671 48.8115 43.8976 48.9616 43.6244C49.1249 43.3241 49.2824 43.0092 49.4384 42.7009C49.5797 42.4219 49.7189 42.1443 49.8544 41.8638C50.0038 41.5474 50.1539 41.2288 50.2953 40.911C50.4227 40.6275 50.5516 40.3456 50.6746 40.0607C50.8123 39.7384 50.9427 39.4125 51.0752 39.0874C51.1887 38.801 51.3059 38.5161 51.4151 38.229C51.5396 37.8995 51.6553 37.5692 51.7724 37.2381C51.8742 36.9518 51.9775 36.6647 52.0727 36.3769C52.1833 36.0407 52.2836 35.7067 52.3862 35.3691C52.4726 35.0857 52.5612 34.8023 52.6425 34.5188C52.7384 34.1783 52.8227 33.8377 52.9091 33.4957C52.9801 33.2181 53.0592 32.9406 53.1193 32.663C53.2006 32.3137 53.2694 31.9687 53.3383 31.6223C53.3925 31.355 53.4525 31.087 53.5001 30.8211C53.5646 30.4586 53.6144 30.1012 53.6671 29.743C53.703 29.497 53.7477 29.2494 53.7777 29.0048C53.8275 28.6093 53.859 28.219 53.8919 27.8294C53.9095 27.628 53.9351 27.4244 53.9491 27.2288C53.9864 26.6444 54.0069 26.0651 54.0069 25.4968C54.0069 24.6824 53.9593 23.8694 53.8795 23.0609C53.8524 22.7936 53.8048 22.5285 53.7704 22.2626C53.6986 21.7199 53.6202 21.1787 53.514 20.6404C53.4525 20.3299 53.3741 20.0208 53.3009 19.7118C53.1823 19.2167 53.0548 18.7245 52.9076 18.2346C52.8117 17.9189 52.7084 17.604 52.6 17.2905C52.5239 17.0672 52.4653 16.8409 52.3825 16.6204C54.7656 15.5526 57.3473 14.9997 59.9589 14.999H59.9801C71.1524 14.999 80.9787 25.488 81.0006 37.4556C80.6967 44.4432 78.5135 51.2198 74.6803 57.0707Z" fill="white"/>
</g>
<defs>
<clipPath id="clip0">
<rect width="90" height="90" fill="white"/>
</clipPath>
</defs>
</svg>
