<svg xmlns="http://www.w3.org/2000/svg" width="52" height="64" viewBox="0 0 52 64" fill="none"><path d="M27.2894 35.8091H24.7108C23.5738 35.8091 22.6485 34.884 22.6485 33.7469C22.6485 32.6098 23.5738 31.6847 24.7108 31.6847H29.8677C30.8648 31.6847 31.6731 30.8764 31.6731 29.8793C31.6731 28.8822 30.8648 28.0738 29.8677 28.0738H27.8054V26.0116C27.8054 25.0145 26.997 24.2062 25.9999 24.2062C25.0028 24.2062 24.1945 25.0145 24.1945 26.0116V28.0983C21.3076 28.36 19.0376 30.7928 19.0376 33.7468C19.0376 36.8749 21.5827 39.4199 24.7108 39.4199H27.2894C28.4265 39.4199 29.3517 40.345 29.3517 41.4822C29.3517 42.6193 28.4266 43.5444 27.2894 43.5444H22.1322C21.1351 43.5444 20.3267 44.3527 20.3267 45.3498C20.3267 46.3469 21.1351 47.1553 22.1322 47.1553H24.1945V49.2175C24.1945 50.2146 25.0028 51.0229 25.9999 51.0229C26.997 51.0229 27.8054 50.2146 27.8054 49.2175V47.1309C30.6924 46.8692 32.9626 44.4364 32.9626 41.4823C32.9626 38.3541 30.4175 35.8091 27.2894 35.8091Z" fill="white"></path><path d="M43.8627 19.7516L40.5749 16.4638H47.2157C48.3509 16.4638 49.2712 15.5435 49.2712 14.4084C49.2712 13.2732 48.3509 12.3529 47.2157 12.3529H38.9384L43.2526 3.72465C43.5712 3.08748 43.5372 2.3308 43.1627 1.72483L43.1626 1.72476C42.7879 1.1189 42.1264 0.75 41.4141 0.75H10.5863C9.87402 0.75 9.21247 1.11889 8.83786 1.7248L8.83784 1.72483C8.46332 2.3308 8.42935 3.08749 8.74793 3.72465L8.97154 3.61285L8.74793 3.72465L13.8869 14.0025L8.1377 19.7516L8.13768 19.7516L8.12227 19.7671C-1.71275 29.6178 -1.70715 45.6322 8.13745 55.4772L8.31423 55.3004L8.13746 55.4772C12.9085 60.2481 19.253 62.8761 26.0001 62.8761C32.7473 62.8761 39.0918 60.2481 43.8626 55.4772C53.7056 45.634 53.7126 29.6234 43.8829 19.7721L43.8627 19.7516ZM13.9121 4.8609H38.0882L34.3422 12.3529H27.9908H17.6581L13.9121 4.8609ZM40.9559 52.5704C36.9607 56.5654 31.6501 58.7652 26.0001 58.7652C20.3501 58.7652 15.0394 56.5654 11.0442 52.5704C2.79784 44.3238 2.79784 30.9052 11.0441 22.6589C11.0441 22.6589 11.0442 22.6589 11.0442 22.6589L11.0447 22.6583C11.0488 22.6542 11.0546 22.6484 11.0607 22.6421L17.2391 16.4638H27.9908H34.7611L40.9348 22.6376L40.9365 22.6393L40.9558 22.6588C49.2023 30.9052 49.2023 44.3238 40.9559 52.5704Z" fill="white" stroke="white" stroke-width="0.5"></path></svg>