<svg xmlns="http://www.w3.org/2000/svg" width="60" height="60" viewBox="0 0 60 60" fill="none"><g clip-path="url(#clip0)"><path d="M3.52942 0V8.25082C3.52942 15.2727 7.75601 21.5269 14.1667 24.1825C14.4891 28.2927 16.4024 32.1385 19.5277 34.8811C21.2427 36.3861 22.3787 38.4036 22.7797 40.5882H17.6471V47.6471H14.1177V56.4706H10.5882V60H49.4118V56.4706H45.8824V47.6471H42.353V40.5882H37.2204C37.6212 38.4036 38.7573 36.3862 40.4724 34.8812C43.5978 32.1385 45.511 28.2927 45.8333 24.1825C52.244 21.5269 56.4706 15.2727 56.4706 8.25082V0L3.52942 0ZM7.05883 8.25082V3.52941H14.1177V20.2475C9.81342 17.8625 7.05883 13.3065 7.05883 8.25082ZM42.353 56.4706H17.6471V51.1765H42.353V56.4706ZM38.8235 47.6471H21.1765V44.1176H38.8235V47.6471ZM38.1444 32.2284C35.6622 34.4066 34.0761 37.3842 33.6471 40.5882H26.3529C25.924 37.3842 24.3378 34.4066 21.8557 32.2284C19.1811 29.8812 17.6471 26.4961 17.6471 22.9412V3.52941H42.353V22.9412C42.353 26.4961 40.819 29.8812 38.1444 32.2284ZM52.9412 8.25082C52.9412 13.3066 50.1866 17.8626 45.8824 20.2475V3.52941H52.9412V8.25082Z" fill="white"></path><path d="M30 9.32068L27.2631 14.8661L21.1431 15.7554L25.5716 20.072L24.5262 26.1672L30 23.2894L35.4736 26.167L34.4282 20.0719L38.8568 15.7553L32.7368 14.866L30 9.32068ZM30.7862 19.7153L30 19.3019L29.2138 19.7151L29.3639 18.8397L28.7279 18.2197L29.6068 18.092L30 17.2954L30.3932 18.092L31.2721 18.2197L30.6361 18.8397L30.7862 19.7153Z" fill="white"></path></g><defs><clipPath id="clip0"><rect width="60" height="60" fill="white"></rect></clipPath></defs></svg>