<svg xmlns="http://www.w3.org/2000/svg" width="60" height="58" viewBox="0 0 60 58" fill="none"><path d="M56.1395 22.9865C55.4378 22.4187 54.27 21.4716 54.1237 21.0228C53.975 20.5566 54.3593 19.0566 54.5899 18.164C55.1428 16.0094 55.8321 13.3291 54.2875 11.2191C52.7502 9.12402 49.9856 8.9405 47.7641 8.79168C46.8442 8.72722 45.302 8.6255 44.9127 8.34285C44.5185 8.05773 43.9259 6.59734 43.5714 5.72207C42.6961 3.55258 41.6994 1.09293 39.2671 0.309411C36.8471 -0.481487 34.6355 0.919372 32.6891 2.1516C31.8312 2.69207 30.5394 3.51039 29.9989 3.51039C29.4807 3.51039 28.2039 2.67976 27.3559 2.12933C25.4839 0.911872 23.1434 -0.595628 20.6763 0.242497C18.2489 1.0682 17.2622 3.51285 16.3869 5.665C16.0349 6.53277 15.4496 7.98074 15.048 8.27582C14.6563 8.56586 13.0868 8.67004 12.1495 8.73203C9.80649 8.8907 7.15102 9.06929 5.6584 11.1817C4.19309 13.257 4.85004 15.8158 5.43023 18.0746C5.6584 18.9721 6.04512 20.4747 5.90625 20.9234C5.75754 21.3523 4.60207 22.302 3.91277 22.8698C2.16949 24.3081 0 26.0957 0 28.7736C0 31.4339 2.12742 33.2018 3.83566 34.62C4.57699 35.2349 5.6952 36.1647 5.84648 36.6259C5.9952 37.0821 5.60848 38.5648 5.37539 39.45C4.81008 41.6244 4.10344 44.3321 5.70762 46.4594C7.27219 48.5273 10.0243 48.7107 12.2385 48.8595C13.1584 48.9239 14.6981 49.0231 15.0899 49.3083C15.4816 49.5936 16.0718 51.0514 16.4263 51.9266C17.304 54.0961 18.2982 56.5558 20.733 57.3418C21.2215 57.5029 21.705 57.5724 22.1761 57.5724C24.0407 57.5724 25.7613 56.4815 27.3135 55.5045C28.1688 54.964 29.4582 54.1457 29.9987 54.1457C30.5269 54.1457 31.7963 54.9541 32.6344 55.4896C34.4939 56.6723 36.8147 58.155 39.2768 57.312C41.7016 56.4863 42.6885 54.0441 43.5637 51.887C43.9158 51.0217 44.501 49.5713 44.9026 49.2762C45.2968 48.9862 46.8564 48.882 47.7887 48.82C50.1144 48.6613 52.7525 48.4853 54.2675 46.405C55.7924 44.3148 55.1378 41.7287 54.5602 39.4502C54.3346 38.56 53.9577 37.0749 54.094 36.6285C54.2427 36.1996 55.3982 35.2499 56.085 34.6821C57.8305 33.244 60 31.4539 60 28.776C60 26.1205 57.8578 24.3824 56.1395 22.9865ZM52.9336 30.8588C51.4832 32.0514 49.983 33.2887 49.3929 35.0615C48.7904 36.8665 49.2813 38.8005 49.7549 40.67C49.9855 41.5824 50.3722 43.1072 50.3202 43.4221C49.9433 43.7048 48.3887 43.8114 47.4589 43.8709C45.6168 43.9949 43.5291 44.1338 41.9745 45.2743C40.4347 46.4024 39.6884 48.2446 38.9668 50.0249C38.6148 50.9027 38.0197 52.3729 37.7742 52.5961C37.3229 52.5961 36.0609 51.7853 35.3047 51.3044C33.7452 50.3126 31.9773 49.1844 30.0012 49.1844C28.0226 49.1844 26.2398 50.3151 24.6629 51.3119C23.8992 51.7929 22.6199 52.6061 22.3472 52.6656C21.9629 52.3903 21.3777 50.9375 21.0257 50.0697C20.2968 48.2671 19.543 46.4051 17.9884 45.2868C16.4438 44.1735 14.475 44.0421 12.5684 43.9157C11.6733 43.8562 10.0046 43.7446 9.70207 43.5388C9.54832 43.1 9.93762 41.6 10.1732 40.7073C10.6318 38.9394 11.1551 36.9361 10.5649 35.1062C9.9723 33.2789 8.39789 31.9673 7.00688 30.8118C6.32754 30.2465 5.06051 29.1927 4.95387 28.8109C5.06543 28.3448 6.36715 27.2712 7.06629 26.6985C8.51672 25.5034 10.0168 24.2662 10.607 22.4934C11.2145 20.6759 10.7136 18.7271 10.2326 16.8427C9.99949 15.9327 9.60773 14.4103 9.6375 14.1203C10.0168 13.8476 11.559 13.7434 12.4814 13.6814C14.4178 13.5525 16.4237 13.4161 17.9783 12.2781C19.518 11.15 20.2644 9.31023 20.9859 7.53004C21.338 6.64984 21.9356 5.18195 22.1637 4.96129C22.6223 4.96867 23.8968 5.79683 24.658 6.29031C26.23 7.31183 28.0152 8.46976 30.0012 8.46976C31.9773 8.46976 33.765 7.33914 35.337 6.34492C36.1007 5.8614 37.38 5.0507 37.6528 4.99117C38.0346 5.26644 38.6223 6.71933 38.9743 7.58711C39.7032 9.38722 40.457 11.2492 42.0116 12.3674C43.5562 13.4832 45.5275 13.6145 47.4367 13.741C48.3789 13.8054 49.9583 13.9121 50.2533 14.0905C50.4046 14.5269 50.0202 16.0344 49.7871 16.932C49.3334 18.7073 48.8176 20.7181 49.4102 22.5529C50.0078 24.4001 51.607 25.6968 53.0179 26.8398C53.6625 27.3654 54.8502 28.3251 55.0336 28.7862C54.8577 29.2695 53.6105 30.2984 52.9336 30.8588Z" fill="white"></path><path d="M41.0869 19.4335C40.0307 18.5509 38.4711 18.6947 37.5959 19.7435L26.5401 32.9614L21.8365 28.2605C20.867 27.291 19.3 27.291 18.3306 28.2605C17.3611 29.2299 17.3611 30.797 18.3306 31.7663L24.9508 38.3865C25.4144 38.8551 26.0467 39.1129 26.7038 39.1129C26.7385 39.1129 26.7758 39.1129 26.8104 39.108C27.5096 39.0783 28.1568 38.756 28.6031 38.2229L41.3968 22.9246C42.2745 21.8734 42.1382 20.3113 41.0869 19.4335Z" fill="white"></path></svg>