<svg xmlns="http://www.w3.org/2000/svg" width="65" height="60" viewBox="0 0 65 60" fill="none"><path d="M32.5001 6.8252C18.8328 6.8252 7.71332 17.9448 7.71332 31.6119C7.71332 45.2799 18.833 56.3994 32.5001 56.3994C46.168 56.3994 57.2868 45.2798 57.2868 31.6119C57.2868 17.9448 46.1673 6.8252 32.5001 6.8252ZM32.5001 51.9072C21.3101 51.9072 12.2063 42.8028 12.2063 31.6128C12.2063 20.4228 21.3099 11.3191 32.5001 11.3191C43.6902 11.3191 52.7938 20.4228 52.7938 31.6128C52.7938 42.8034 43.69 51.9072 32.5001 51.9072Z" fill="white"></path><path d="M39.3894 30.8631H33.3988V22.1765C33.3988 20.9356 32.393 19.9299 31.1522 19.9299C29.9114 19.9299 28.9056 20.9356 28.9056 22.1765V33.1096C28.9056 34.3505 29.9114 35.3562 31.1522 35.3562H39.3895C40.6304 35.3562 41.6361 34.3505 41.6361 33.1096C41.636 31.8688 40.6302 30.8631 39.3894 30.8631Z" fill="white"></path><path d="M19.7749 47.6906C18.8523 46.86 17.4317 46.9357 16.6021 47.8575L9.86244 55.346C9.03192 56.2678 9.10758 57.6884 10.0294 58.5181C10.4585 58.9053 10.9961 59.0955 11.5316 59.0955C12.1464 59.0955 12.759 58.8446 13.2023 58.3512L19.942 50.8627C20.7724 49.9408 20.6967 48.5202 19.7749 47.6906Z" fill="white"></path><path d="M55.1383 55.3466L48.3986 47.8581C47.5704 46.9356 46.1492 46.8607 45.2265 47.6912C44.3039 48.521 44.2298 49.9414 45.0595 50.8634L51.7992 58.3518C52.2418 58.8445 52.8543 59.0954 53.4691 59.0954C54.0039 59.0954 54.5415 58.9052 54.9714 58.5187C55.8939 57.689 55.9681 56.2684 55.1383 55.3466Z" fill="white"></path><path d="M19.3938 3.27426C14.9299 -1.09671 7.73436 -1.08999 3.35437 3.29077C1.1751 5.46915 -0.015588 8.35148 0.000154119 11.4067C0.016658 14.4253 1.21331 17.2515 3.37075 19.3647C3.8081 19.7923 4.37494 20.0057 4.94255 20.0057C5.51764 20.0057 6.09274 19.7856 6.53085 19.3482L19.411 6.46814C19.8349 6.04361 20.0715 5.46762 20.0684 4.8679C20.0655 4.26792 19.8228 3.69435 19.3938 3.27426ZM5.18896 14.3354C4.73891 13.4286 4.49847 12.4251 4.49326 11.3827C4.48349 9.5376 5.20686 7.79124 6.53085 6.46725C7.85179 5.14707 9.59815 4.4873 11.3542 4.4873C12.3808 4.4873 13.4113 4.71264 14.3608 5.16345L5.18896 14.3354Z" fill="white"></path><path d="M61.6458 3.28987C57.265 -1.09012 50.0693 -1.09761 45.6056 3.27337C45.1772 3.69345 44.9339 4.26715 44.9308 4.86688C44.9278 5.46673 45.1652 6.04335 45.5891 6.46711L58.4692 19.3472C58.9073 19.7861 59.4824 20.0055 60.0575 20.0055C60.6251 20.0055 61.1927 19.7921 61.6293 19.363C63.7875 17.2505 64.9841 14.4244 64.9999 11.4057C65.0156 8.35135 63.8242 5.46901 61.6458 3.28987ZM59.8112 14.3353L50.6394 5.16344C53.2138 3.94127 56.3762 4.37494 58.4693 6.46788C59.7933 7.79187 60.5167 9.53734 60.5069 11.3834C60.5015 12.425 60.2612 13.4292 59.8112 14.3353Z" fill="white"></path></svg>